<mxfile host="app.diagrams.net" agent="Mozilla/5.0 (Windows NT 10.0; Win64; x64) AppleWebKit/537.36 (KHTML, like Gecko) Chrome/134.0.0.0 Safari/537.36" version="26.1.1">
  <diagram name="Page-1" id="9f46799a-70d6-7492-0946-bef42562c5a5">
    <mxGraphModel dx="1302" dy="711" grid="1" gridSize="10" guides="1" tooltips="1" connect="1" arrows="1" fold="1" page="1" pageScale="1" pageWidth="1100" pageHeight="850" background="none" math="0" shadow="0">
      <root>
        <mxCell id="0" />
        <mxCell id="1" parent="0" />
        <mxCell id="TUf3GPkxzCGcySICfNlQ-68" value="" style="group;flipH=1;" parent="1" vertex="1" connectable="0">
          <mxGeometry x="740" y="300" width="140" height="180" as="geometry" />
        </mxCell>
        <mxCell id="TUf3GPkxzCGcySICfNlQ-53" value="&lt;div&gt;&lt;br&gt;&lt;/div&gt;" style="text;strokeColor=default;fillColor=none;align=center;verticalAlign=middle;spacingLeft=4;spacingRight=4;overflow=hidden;rotatable=0;points=[[0,0.5],[1,0.5]];portConstraint=eastwest;whiteSpace=wrap;html=1;" parent="TUf3GPkxzCGcySICfNlQ-68" vertex="1">
          <mxGeometry y="126" width="140" height="56" as="geometry" />
        </mxCell>
        <mxCell id="TUf3GPkxzCGcySICfNlQ-66" value="&lt;div&gt;&lt;br&gt;&lt;/div&gt;" style="text;strokeColor=default;fillColor=none;align=center;verticalAlign=middle;spacingLeft=4;spacingRight=4;overflow=hidden;rotatable=0;points=[[0,0.5],[1,0.5]];portConstraint=eastwest;whiteSpace=wrap;html=1;" parent="TUf3GPkxzCGcySICfNlQ-68" vertex="1">
          <mxGeometry width="140" height="56" as="geometry" />
        </mxCell>
        <mxCell id="TUf3GPkxzCGcySICfNlQ-67" value="文件存储映射部分" style="text;strokeColor=#000000;fillColor=#dae8fc;align=center;verticalAlign=middle;spacingLeft=4;spacingRight=4;overflow=hidden;rotatable=0;points=[[0,0.5],[1,0.5]];portConstraint=eastwest;whiteSpace=wrap;html=1;" parent="TUf3GPkxzCGcySICfNlQ-68" vertex="1">
          <mxGeometry y="56" width="140" height="70" as="geometry" />
        </mxCell>
        <mxCell id="rWG0_e_uaKxrIW8g8E-3-16" value="" style="group;flipH=1;" vertex="1" connectable="0" parent="1">
          <mxGeometry x="1005" y="289" width="140" height="240" as="geometry" />
        </mxCell>
        <mxCell id="rWG0_e_uaKxrIW8g8E-3-2" value="初始数据段" style="text;strokeColor=default;fillColor=none;align=center;verticalAlign=middle;spacingLeft=4;spacingRight=4;overflow=hidden;rotatable=0;points=[[0,0.5],[1,0.5]];portConstraint=eastwest;whiteSpace=wrap;html=1;container=0;" vertex="1" parent="rWG0_e_uaKxrIW8g8E-3-16">
          <mxGeometry y="186" width="140" height="26" as="geometry" />
        </mxCell>
        <mxCell id="rWG0_e_uaKxrIW8g8E-3-3" value="text 数据段&lt;div&gt;&lt;br&gt;&lt;/div&gt;" style="text;strokeColor=default;fillColor=none;align=center;verticalAlign=middle;spacingLeft=4;spacingRight=4;overflow=hidden;rotatable=0;points=[[0,0.5],[1,0.5]];portConstraint=eastwest;whiteSpace=wrap;html=1;container=0;" vertex="1" parent="rWG0_e_uaKxrIW8g8E-3-16">
          <mxGeometry y="212" width="140" height="26" as="geometry" />
        </mxCell>
        <mxCell id="rWG0_e_uaKxrIW8g8E-3-4" value="bss 数据段" style="text;strokeColor=default;fillColor=none;align=center;verticalAlign=middle;spacingLeft=4;spacingRight=4;overflow=hidden;rotatable=0;points=[[0,0.5],[1,0.5]];portConstraint=eastwest;whiteSpace=wrap;html=1;container=0;" vertex="1" parent="rWG0_e_uaKxrIW8g8E-3-16">
          <mxGeometry y="160" width="140" height="26" as="geometry" />
        </mxCell>
        <mxCell id="rWG0_e_uaKxrIW8g8E-3-5" value="文件的存储映射部分" style="text;strokeColor=#000000;fillColor=#dae8fc;align=center;verticalAlign=middle;spacingLeft=4;spacingRight=4;overflow=hidden;rotatable=0;points=[[0,0.5],[1,0.5]];portConstraint=eastwest;whiteSpace=wrap;html=1;container=0;" vertex="1" parent="rWG0_e_uaKxrIW8g8E-3-16">
          <mxGeometry y="76" width="140" height="40" as="geometry" />
        </mxCell>
        <mxCell id="rWG0_e_uaKxrIW8g8E-3-11" value="" style="text;strokeColor=default;fillColor=none;align=center;verticalAlign=middle;spacingLeft=4;spacingRight=4;overflow=hidden;rotatable=0;points=[[0,0.5],[1,0.5]];portConstraint=eastwest;whiteSpace=wrap;html=1;container=0;" vertex="1" parent="rWG0_e_uaKxrIW8g8E-3-16">
          <mxGeometry y="116" width="140" height="44" as="geometry" />
        </mxCell>
        <mxCell id="rWG0_e_uaKxrIW8g8E-3-12" value="" style="text;strokeColor=default;fillColor=none;align=center;verticalAlign=middle;spacingLeft=4;spacingRight=4;overflow=hidden;rotatable=0;points=[[0,0.5],[1,0.5]];portConstraint=eastwest;whiteSpace=wrap;html=1;container=0;" vertex="1" parent="rWG0_e_uaKxrIW8g8E-3-16">
          <mxGeometry y="26" width="140" height="50" as="geometry" />
        </mxCell>
        <mxCell id="rWG0_e_uaKxrIW8g8E-3-13" value="" style="text;strokeColor=default;fillColor=none;align=center;verticalAlign=middle;spacingLeft=4;spacingRight=4;overflow=hidden;rotatable=0;points=[[0,0.5],[1,0.5]];portConstraint=eastwest;whiteSpace=wrap;html=1;container=0;" vertex="1" parent="rWG0_e_uaKxrIW8g8E-3-16">
          <mxGeometry width="140" height="26" as="geometry" />
        </mxCell>
        <mxCell id="rWG0_e_uaKxrIW8g8E-3-14" value="堆" style="text;strokeColor=default;fillColor=none;align=center;verticalAlign=middle;spacingLeft=4;spacingRight=4;overflow=hidden;rotatable=0;points=[[0,0.5],[1,0.5]];portConstraint=eastwest;whiteSpace=wrap;html=1;dashed=1;container=0;" vertex="1" parent="rWG0_e_uaKxrIW8g8E-3-16">
          <mxGeometry y="134" width="140" height="26" as="geometry" />
        </mxCell>
        <mxCell id="rWG0_e_uaKxrIW8g8E-3-15" value="栈" style="text;strokeColor=default;fillColor=none;align=center;verticalAlign=middle;spacingLeft=4;spacingRight=4;overflow=hidden;rotatable=0;points=[[0,0.5],[1,0.5]];portConstraint=eastwest;whiteSpace=wrap;html=1;dashed=1;container=0;" vertex="1" parent="rWG0_e_uaKxrIW8g8E-3-16">
          <mxGeometry y="26" width="140" height="26" as="geometry" />
        </mxCell>
        <mxCell id="rWG0_e_uaKxrIW8g8E-3-17" value="" style="group" vertex="1" connectable="0" parent="1">
          <mxGeometry x="480" y="290" width="140" height="238" as="geometry" />
        </mxCell>
        <mxCell id="rWG0_e_uaKxrIW8g8E-3-18" value="初始数据段" style="text;strokeColor=default;fillColor=none;align=center;verticalAlign=middle;spacingLeft=4;spacingRight=4;overflow=hidden;rotatable=0;points=[[0,0.5],[1,0.5]];portConstraint=eastwest;whiteSpace=wrap;html=1;container=0;" vertex="1" parent="rWG0_e_uaKxrIW8g8E-3-17">
          <mxGeometry y="186" width="140" height="26" as="geometry" />
        </mxCell>
        <mxCell id="rWG0_e_uaKxrIW8g8E-3-19" value="text 数据段&lt;div&gt;&lt;br&gt;&lt;/div&gt;" style="text;strokeColor=default;fillColor=none;align=center;verticalAlign=middle;spacingLeft=4;spacingRight=4;overflow=hidden;rotatable=0;points=[[0,0.5],[1,0.5]];portConstraint=eastwest;whiteSpace=wrap;html=1;container=0;" vertex="1" parent="rWG0_e_uaKxrIW8g8E-3-17">
          <mxGeometry y="212" width="140" height="26" as="geometry" />
        </mxCell>
        <mxCell id="rWG0_e_uaKxrIW8g8E-3-20" value="bss 数据段" style="text;strokeColor=default;fillColor=none;align=center;verticalAlign=middle;spacingLeft=4;spacingRight=4;overflow=hidden;rotatable=0;points=[[0,0.5],[1,0.5]];portConstraint=eastwest;whiteSpace=wrap;html=1;container=0;" vertex="1" parent="rWG0_e_uaKxrIW8g8E-3-17">
          <mxGeometry y="160" width="140" height="26" as="geometry" />
        </mxCell>
        <mxCell id="rWG0_e_uaKxrIW8g8E-3-21" value="文件的存储映射部分" style="text;strokeColor=#000000;fillColor=#dae8fc;align=center;verticalAlign=middle;spacingLeft=4;spacingRight=4;overflow=hidden;rotatable=0;points=[[0,0.5],[1,0.5]];portConstraint=eastwest;whiteSpace=wrap;html=1;container=0;" vertex="1" parent="rWG0_e_uaKxrIW8g8E-3-17">
          <mxGeometry y="76" width="140" height="40" as="geometry" />
        </mxCell>
        <mxCell id="rWG0_e_uaKxrIW8g8E-3-22" value="" style="text;strokeColor=default;fillColor=none;align=center;verticalAlign=middle;spacingLeft=4;spacingRight=4;overflow=hidden;rotatable=0;points=[[0,0.5],[1,0.5]];portConstraint=eastwest;whiteSpace=wrap;html=1;container=0;" vertex="1" parent="rWG0_e_uaKxrIW8g8E-3-17">
          <mxGeometry y="116" width="140" height="44" as="geometry" />
        </mxCell>
        <mxCell id="rWG0_e_uaKxrIW8g8E-3-23" value="" style="text;strokeColor=default;fillColor=none;align=center;verticalAlign=middle;spacingLeft=4;spacingRight=4;overflow=hidden;rotatable=0;points=[[0,0.5],[1,0.5]];portConstraint=eastwest;whiteSpace=wrap;html=1;container=0;" vertex="1" parent="rWG0_e_uaKxrIW8g8E-3-17">
          <mxGeometry y="26" width="140" height="50" as="geometry" />
        </mxCell>
        <mxCell id="rWG0_e_uaKxrIW8g8E-3-24" value="" style="text;strokeColor=default;fillColor=none;align=center;verticalAlign=middle;spacingLeft=4;spacingRight=4;overflow=hidden;rotatable=0;points=[[0,0.5],[1,0.5]];portConstraint=eastwest;whiteSpace=wrap;html=1;container=0;" vertex="1" parent="rWG0_e_uaKxrIW8g8E-3-17">
          <mxGeometry width="140" height="26" as="geometry" />
        </mxCell>
        <mxCell id="rWG0_e_uaKxrIW8g8E-3-25" value="堆" style="text;strokeColor=default;fillColor=none;align=center;verticalAlign=middle;spacingLeft=4;spacingRight=4;overflow=hidden;rotatable=0;points=[[0,0.5],[1,0.5]];portConstraint=eastwest;whiteSpace=wrap;html=1;dashed=1;container=0;" vertex="1" parent="rWG0_e_uaKxrIW8g8E-3-17">
          <mxGeometry y="134" width="140" height="26" as="geometry" />
        </mxCell>
        <mxCell id="rWG0_e_uaKxrIW8g8E-3-26" value="栈" style="text;strokeColor=default;fillColor=none;align=center;verticalAlign=middle;spacingLeft=4;spacingRight=4;overflow=hidden;rotatable=0;points=[[0,0.5],[1,0.5]];portConstraint=eastwest;whiteSpace=wrap;html=1;dashed=1;container=0;" vertex="1" parent="rWG0_e_uaKxrIW8g8E-3-17">
          <mxGeometry y="26" width="140" height="26" as="geometry" />
        </mxCell>
        <mxCell id="rWG0_e_uaKxrIW8g8E-3-27" value="" style="endArrow=classic;html=1;rounded=0;entryX=0.962;entryY=1.017;entryDx=0;entryDy=0;entryPerimeter=0;exitX=0;exitY=0;exitDx=0;exitDy=0;exitPerimeter=0;dashed=1;" edge="1" parent="1" source="TUf3GPkxzCGcySICfNlQ-53" target="rWG0_e_uaKxrIW8g8E-3-21">
          <mxGeometry width="50" height="50" relative="1" as="geometry">
            <mxPoint x="880" y="430" as="sourcePoint" />
            <mxPoint x="930" y="380" as="targetPoint" />
          </mxGeometry>
        </mxCell>
        <mxCell id="rWG0_e_uaKxrIW8g8E-3-28" value="" style="endArrow=classic;html=1;rounded=0;entryX=0.002;entryY=0.942;entryDx=0;entryDy=0;entryPerimeter=0;dashed=1;" edge="1" parent="1" target="rWG0_e_uaKxrIW8g8E-3-5">
          <mxGeometry width="50" height="50" relative="1" as="geometry">
            <mxPoint x="880" y="424" as="sourcePoint" />
            <mxPoint x="930" y="380" as="targetPoint" />
          </mxGeometry>
        </mxCell>
        <mxCell id="rWG0_e_uaKxrIW8g8E-3-29" value="" style="endArrow=classic;html=1;rounded=0;entryX=0.002;entryY=0.108;entryDx=0;entryDy=0;entryPerimeter=0;exitX=1;exitY=0.057;exitDx=0;exitDy=0;exitPerimeter=0;dashed=1;" edge="1" parent="1" source="TUf3GPkxzCGcySICfNlQ-67" target="rWG0_e_uaKxrIW8g8E-3-5">
          <mxGeometry width="50" height="50" relative="1" as="geometry">
            <mxPoint x="893" y="433" as="sourcePoint" />
            <mxPoint x="1015" y="413" as="targetPoint" />
          </mxGeometry>
        </mxCell>
        <mxCell id="rWG0_e_uaKxrIW8g8E-3-30" value="" style="endArrow=classic;html=1;rounded=0;exitX=-0.01;exitY=0.038;exitDx=0;exitDy=0;exitPerimeter=0;dashed=1;" edge="1" parent="1" source="TUf3GPkxzCGcySICfNlQ-67">
          <mxGeometry width="50" height="50" relative="1" as="geometry">
            <mxPoint x="890" y="370" as="sourcePoint" />
            <mxPoint x="620" y="367" as="targetPoint" />
          </mxGeometry>
        </mxCell>
      </root>
    </mxGraphModel>
  </diagram>
</mxfile>
